# xmcd CD database file
#
# Track frame offsets:
#	150
#	15160
#	35440
#	53413
#
# Disc length: 956 seconds
#
# Revision: 5
# Processed by: cddbd v1.5.2PL0 Copyright (c) Steve Scherf et al.
# Submitted via: CDex 1.70beta3
#
DISCID=1d03ba04
DTITLE=平沢 唯(CV:豊崎 愛生)　秋山 澪(CV:日笠 陽子)　田井中 律(CV:佐藤 聡美)　琴吹 紬(CV:寿 美菜子)　中野 梓(CV:竹達 彩奈) - 放課後ティータイム Disc02『LiveMix』
DYEAR=2009
DGENRE=Anime
TTITLE0=平沢 唯(CV:豊崎 愛生)　コーラス：秋山 澪(CV:日笠 陽子)/カレーのちライス(＃8『新歓！』Mix)
TTITLE1=平沢 唯(CV:豊崎 愛生)　コーラス：秋山 澪(CV:日笠 陽子)/わたしの恋はホッチキス(＃8『新歓！』Mix)
TTITLE2=秋山 澪(CV:日笠 陽子)/ふでペン ～ボールペン～(＃12『軽音！』Mix)
TTITLE3=平沢 唯(CV:豊崎 愛生)　コーラス：秋山 澪(CV:日笠 陽子)/ふわふわ時間(＃12『軽音！』Mix)
EXTD=YEAR: 2009
EXTT0=
EXTT1=
EXTT2=
EXTT3=
PLAYORDER=
